<svg height="401pt" viewBox="0 -1 401.52289 401" width="401pt" xmlns="http://www.w3.org/2000/svg"><path fill="rgb(255, 255, 255)" d="M 370.6 251 c -5.5 0 -10 4.5 -10 10 v 88.8 c 0 16.6 -13.4 30 -30 30 h -280.6 c -16.6 0 -30 -13.4 -30 -30 v -260.6 c 0 -16.6 13.4 -30 30 -30 h 88.8 c 5.5 0 10 -4.5 10 -10 c 0 -5.5 -4.5 -10 -10 -10 h -88.8 c -27.6 0 -50 22.4 -50 50 v 260.6 c 0 27.6 22.4 50 50 50 h 280.6 c 27.6 0 50 -22.4 50 -50 v -88.8 c 0 -5.5 -4.5 -10 -10 -10 z m 0 0"/><path fill="rgb(255, 255, 255)" d="M 376.6 13.4 c -17.6 -17.6 -46.1 -17.6 -63.6 0 l -178.4 178.4 c -1.2 1.2 -2.1 2.7 -2.6 4.4 l -23.5 84.7 c -1 3.5 0 7.2 2.6 9.7 c 2.6 2.5 6.3 3.5 9.7 2.6 l 84.7 -23.5 c 1.7 -0.5 3.2 -1.3 4.4 -2.6 l 178.4 -178.4 c 17.5 -17.6 17.5 -46.1 0 -63.6 z m -220.3 184.9 l 146 -146 l 47.1 47.1 l -146 146 z m -9.4 18.9 l 37.6 37.6 l -52 14.4 z m 227.3 -142.5 l -10.6 10.6 l -47.1 -47.1 l 10.6 -10.6 c 9.8 -9.8 25.6 -9.8 35.4 0 l 11.7 11.7 c 9.7 9.8 9.7 25.6 0 35.4 z m 0 0"/></svg>