<?xml version="1.0" encoding="iso-8859-1"?>
<!-- Generator: Adobe Illustrator 16.0.0, SVG Export Plug-In . SVG Version: 6.00 Build 0)  -->
<!DOCTYPE svg PUBLIC "-//W3C//DTD SVG 1.1//EN" "http://www.w3.org/Graphics/SVG/1.1/DTD/svg11.dtd">
<svg version="1.1" id="Capa_1" xmlns="http://www.w3.org/2000/svg" xmlns:xlink="http://www.w3.org/1999/xlink" x="0px" y="0px"
	 width="482.4px" height="482.4px" viewBox="0 0 482.428 482.429" style="enable-background: new 0 0 482.428 482.429"
	 xml:space="preserve">
<g fill="rgb(255, 255, 255)">
	<g>
		<path d="M 381.2 57.8 h -75.1 C 302.3 25.3 274.7 0 241.2 0 c -33.5 0 -61.1 25.3 -64.8 57.8 h -75.1 c -30.4 0 -55.1 24.7 -55.1 55.1 v 2.8 c 0 23.2 14.5 43.1 34.8 51.2 v 260.4 c 0 30.4 24.7 55.1 55.1 55.1 h 210.2 c 30.4 0 55.1 -24.7 55.1 -55.1 V 166.9 c 20.4 -8.1 34.8 -28 34.8 -51.2 v -2.8 C 436.3 82.5 411.6 57.8 381.2 57.8 z M 241.2 26.1 c 19 0 34.9 13.6 38.4 31.7 h -76.9 C 206.3 39.8 222.2 26.1 241.2 26.1 z M 375.3 427.3 c 0 16 -13 29 -29 29 H 136.1 c -16 0 -29 -13 -29 -29 V 170.9 h 268.2 V 427.3 z M 410.1 115.7 c 0 16 -13 29 -29 29 H 101.3 c -16 0 -29 -13 -29 -29 v -2.8 c 0 -16 13 -29 29 -29 h 279.9 c 16 0 29 13 29 29 V 115.7 z"/>
		<path d="M 171.1 422.9 c 7.2 0 13.1 -5.9 13.1 -13.1 V 262.6 c 0 -7.2 -5.9 -13.1 -13.1 -13.1 c -7.2 0 -13.1 5.9 -13.1 13.1 v 147.2 C 158.1 417 163.9 422.9 171.1 422.9 z"/>
		<path d="M 241.2 422.9 c 7.2 0 13.1 -5.9 13.1 -13.1 V 262.6 c 0 -7.2 -5.9 -13.1 -13.1 -13.1 c -7.2 0 -13.1 5.9 -13.1 13.1 v 147.2 C 228.1 417 234 422.9 241.2 422.9 z"/>
		<path d="M 311.3 422.9 c 7.2 0 13.1 -5.9 13.1 -13.1 V 262.6 c 0 -7.2 -5.9 -13.1 -13.1 -13.1 c -7.2 0 -13.1 5.9 -13.1 13.1 v 147.2 C 298.2 417 304.1 422.9 311.3 422.9 z"/>
	</g>
</g>
<g>
</g>
<g>
</g>
<g>
</g>
<g>
</g>
<g>
</g>
<g>
</g>
<g>
</g>
<g>
</g>
<g>
</g>
<g>
</g>
<g>
</g>
<g>
</g>
<g>
</g>
<g>
</g>
<g>
</g>
</svg>
