<svg xmlns="http://www.w3.org/2000/svg" width="131.256" height="152" viewBox="0 0 131.256 152">
  <g id="pills_1_" data-name="pills (1)" transform="translate(-34.937 0)">
    <circle id="Ellipse_5" data-name="Ellipse 5" cx="4.686" cy="4.686" r="4.686" transform="translate(96.544 122.145)" fill="#7fdbd5"/>
    <g id="Group_28" data-name="Group 28" transform="translate(102.575 101.938)">
      <circle id="Ellipse_6" data-name="Ellipse 6" cx="4.459" cy="4.459" r="4.459" transform="translate(13.825 25.81)" fill="#38648c"/>
      <circle id="Ellipse_7" data-name="Ellipse 7" cx="4.459" cy="4.459" r="4.459" fill="#38648c"/>
    </g>
    <circle id="Ellipse_8" data-name="Ellipse 8" cx="5.62" cy="5.62" r="5.62" transform="translate(118.615 109.095)" fill="#7fdbd5"/>
    <circle id="Ellipse_9" data-name="Ellipse 9" cx="6.02" cy="6.02" r="6.02" transform="translate(101.014 139.959)" fill="#f28b74"/>
    <path id="Path_81" data-name="Path 81" d="M145.953,72.4l-20.4,18.163L151.4,119.579l20.4-18.163a19.427,19.427,0,0,0,1.588-27.427h0A19.427,19.427,0,0,0,145.953,72.4Z" transform="translate(-63.717 -47.449)" fill="#7fdbd5"/>
    <path id="Path_82" data-name="Path 82" d="M41.444,163.395l20.4-18.163,25.839,29.015-20.4,18.163a19.427,19.427,0,0,1-27.427-1.588h0A19.426,19.426,0,0,1,41.444,163.395Z" transform="translate(0 -102.116)" fill="#287d99"/>
    <path id="Path_83" data-name="Path 83" d="M109.822,74a19.386,19.386,0,0,0-15.37-6.486A19.376,19.376,0,0,0,96.537,83.5l6.432,10.3a4.2,4.2,0,0,1-.862,5.443C90.073,109.3,74.681,120.156,66.63,123.455,54.319,128.5,43.562,115.737,45.3,105.442l-3.48,3.1a19.427,19.427,0,1,0,25.622,29.208l40.792-36.326A19.427,19.427,0,0,0,109.822,74Z" transform="translate(-0.159 -47.455)" opacity="0.1"/>
    <path id="Path_84" data-name="Path 84" d="M251.69,29.716l14.463,23.167L299.11,32.308,284.648,9.141A19.426,19.426,0,0,0,257.881,2.95h0A19.427,19.427,0,0,0,251.69,29.716Z" transform="translate(-150.33 0)" fill="#76b7eb"/>
    <path id="Path_85" data-name="Path 85" d="M321.857,152.571,307.394,129.4l32.958-20.575L354.814,132a19.426,19.426,0,0,1-6.191,26.766h0A19.426,19.426,0,0,1,321.857,152.571Z" transform="translate(-191.571 -76.521)" fill="#d1eff2"/>
    <path id="Path_86" data-name="Path 86" d="M307.382,89.088a19.582,19.582,0,0,0,2.445-1.805c-23.095-3.394-53.2-58.524-51.845-77.546-.034.02-.068.039-.1.06h0a19.426,19.426,0,0,0-6.191,26.766L280.615,82.9a19.427,19.427,0,0,0,26.767,6.191Z" transform="translate(-150.33 -6.846)" opacity="0.1"/>
    <path id="Path_87" data-name="Path 87" d="M139.678,267.7l23.652,9.8a1.71,1.71,0,0,0,2.234-.925l13.56-32.736a1.709,1.709,0,0,0-.925-2.234l-23.652-9.8a19.426,19.426,0,0,0-25.382,10.514h0A19.426,19.426,0,0,0,139.678,267.7Z" transform="translate(-65.211 -161.943)" fill="#f28b74"/>
    <path id="Path_88" data-name="Path 88" d="M165.565,289.143l3.34-8.062c-27.936-5.317-37.315-21.826-35.129-32.88a19.346,19.346,0,0,0-4.61,6.689h0a19.426,19.426,0,0,0,10.514,25.382l23.652,9.8A1.71,1.71,0,0,0,165.565,289.143Z" transform="translate(-65.211 -174.516)" opacity="0.1"/>
    <path id="Path_89" data-name="Path 89" d="M341.1,267.7l-23.652,9.8a1.709,1.709,0,0,1-2.234-.925l-13.56-32.736a1.709,1.709,0,0,1,.925-2.234l23.652-9.8a19.426,19.426,0,0,1,25.382,10.514h0A19.427,19.427,0,0,1,341.1,267.7Z" transform="translate(-187.441 -161.943)" fill="#76b7eb"/>
  </g>
</svg>
