<svg xmlns="http://www.w3.org/2000/svg" width="549.482" height="277.582" viewBox="0 0 549.482 277.582">
  <g id="Group_48" data-name="Group 48" transform="translate(-58.482 -1255.138)">
    <text id="Pharmaceutical_Warehouse" data-name="Pharmaceutical 
Warehouse" transform="translate(330.964 1490)" fill="#001a4b" font-size="21" font-family="Muli" font-weight="700"><tspan x="-81.27" y="0">Pharmaceutical </tspan><tspan x="-57.215" y="28">Warehouse</tspan></text>
    <g id="info" transform="translate(58.481 1255.138)">
      <g id="Layer_1" data-name="Layer 1" transform="translate(0 0)">
        <g id="Group_47" data-name="Group 47" transform="translate(1.642 1.818)" opacity="0.3">
          <path id="Path_529" data-name="Path 529" d="M192.392,224.356l-7.052-15.1a59.078,59.078,0,1,0-8.5,16.826Z" transform="translate(-69.949 -10.755)"/>
          <path id="Path_530" data-name="Path 530" d="M245.046,59.426a58.991,58.991,0,1,0-15.783,103.893l13.626,7.674,3.084-16.377a59.049,59.049,0,0,0-.927-95.19Z" transform="translate(-33.349 -48.353)"/>
          <path id="Path_531" data-name="Path 531" d="M425.861,132.423a58.976,58.976,0,0,0-56.24,76.743l-7.052,15.1,15.551,1.723A58.976,58.976,0,1,0,425.9,132.38Z" transform="translate(61.14 -10.711)"/>
          <path id="Path_532" data-name="Path 532" d="M390.849,72.916A58.991,58.991,0,1,0,307.6,154.582l3.084,16.333,13.64-7.674a58.976,58.976,0,0,0,66.52-90.369Z" transform="translate(25.926 -48.348)"/>
        </g>
        <path id="Path_533" data-name="Path 533" d="M209.88,205.106l-25.47-25.47A147.781,147.781,0,0,1,289.519,136.11v36.04a111.944,111.944,0,0,0-79.639,32.956Z" transform="translate(-17.03 -7.221)" fill="#001a4b"/>
        <path id="Path_534" data-name="Path 534" d="M336.639,205.106A111.957,111.957,0,0,0,257,172.15V136.11a147.781,147.781,0,0,1,105.167,43.526Z" transform="translate(15.489 -7.221)" fill="#0eafed"/>
        <path id="Path_535" data-name="Path 535" d="M190.312,271.337H154.3A147.694,147.694,0,0,1,197.827,166.17l25.542,25.47a111.958,111.958,0,0,0-33.057,79.7Z" transform="translate(-30.518 6.245)" fill="#0eafed"/>
        <path id="Path_536" data-name="Path 536" d="M381.026,271.319H345.015A111.958,111.958,0,0,0,312.03,191.68l25.47-25.47a147.781,147.781,0,0,1,43.526,105.109Z" transform="translate(40.142 6.263)" fill="#001a4b"/>
        <path id="Path_537" data-name="Path 537" d="M192.392,224.356l-7.052-15.1a59.078,59.078,0,1,0-8.5,16.826Z" transform="translate(-68.306 -8.936)" fill="#0eafed"/>
        <path id="Path_538" data-name="Path 538" d="M129.609,252.76a60.815,60.815,0,1,1,58.209-43.121l7.819,16.739-17.26,1.911A61.032,61.032,0,0,1,129.609,252.76Zm0-117.982a57.2,57.2,0,1,0,46.335,90.759l.463-.652,13.843-1.535L183.966,209.9l.217-.666a57.239,57.239,0,0,0-54.531-74.455Z" transform="translate(-68.814 -9.452)" fill="#fff"/>
        <path id="Path_539" data-name="Path 539" d="M245.046,59.426a58.991,58.991,0,1,0-15.783,103.893l13.626,7.674,3.084-16.377a59.049,59.049,0,0,0-.927-95.19Z" transform="translate(-31.706 -46.535)" fill="#001a4b"/>
        <path id="Path_540" data-name="Path 540" d="M244.782,174.377l-15.146-8.514A60.815,60.815,0,1,1,246.679,58.539h0a60.815,60.815,0,0,1,1.448,97.666Zm-14.755-12.424,12.134,6.82,2.751-14.6.55-.42a57.271,57.271,0,1,0-16.2,8.442Z" transform="translate(-32.283 -47.096)" fill="#fff"/>
        <path id="Path_541" data-name="Path 541" d="M425.861,132.423a58.976,58.976,0,0,0-56.24,76.743l-7.052,15.1,15.551,1.723A58.976,58.976,0,1,0,425.9,132.38Z" transform="translate(62.783 -8.892)" fill="#001a4b"/>
        <path id="Path_542" data-name="Path 542" d="M426.695,252.76A61.032,61.032,0,0,1,377.97,228.29l-17.26-1.911,7.819-16.739a60.815,60.815,0,1,1,58.165,43.121Zm-60.6-29.408,13.843,1.535.463.652a56.848,56.848,0,1,0-8.239-16.3l.217.666Z" transform="translate(61.95 -9.452)" fill="#fff"/>
        <path id="Path_543" data-name="Path 543" d="M390.849,72.916A58.991,58.991,0,1,0,307.6,154.582l3.084,16.333,13.64-7.674a58.976,58.976,0,0,0,66.52-90.369Z" transform="translate(27.568 -46.53)" fill="#0eafed"/>
        <path id="Path_544" data-name="Path 544" d="M309.948,174.379l-3.4-18.158a60.815,60.815,0,1,1,86.343-83.78h0a60.815,60.815,0,0,1-67.751,93.366ZM343.426,50.765A57.2,57.2,0,0,0,309.21,153.7l.55.42,2.751,14.6,12.149-6.82.753.246A57.181,57.181,0,1,0,343.368,50.649Z" transform="translate(26.991 -47.097)" fill="#fff"/>
      </g>
    </g>
    <text id="Vitamins" transform="translate(117.964 1444)" fill="#fff" font-size="16" font-family="Muli" font-weight="700"><tspan x="-33.928" y="0">Vitamins</tspan></text>
    <text id="_More" data-name="&amp; More" transform="translate(545.964 1444)" fill="#fff" font-size="16" font-family="Muli" font-weight="700"><tspan x="-26.664" y="0">&amp; More</tspan></text>
    <text id="Tonics" transform="translate(236.964 1322)" fill="#fff" font-size="16" font-family="Muli" font-weight="700"><tspan x="-23.984" y="0">Tonics</tspan></text>
    <text id="Anti-Oxidant" transform="translate(428.964 1322)" fill="#fff" font-size="16" font-family="Muli" font-weight="700"><tspan x="-49.944" y="0">Anti-Oxidant</tspan></text>
  </g>
</svg>
