<svg id="at" xmlns="http://www.w3.org/2000/svg" width="21.33" height="21.33" viewBox="0 0 21.33 21.33">
  <g id="Group_8" data-name="Group 8" transform="translate(8.655 8.573)">
    <g id="Group_7" data-name="Group 7">
      <path id="Path_73" data-name="Path 73" d="M214.051,210a2.051,2.051,0,1,0,2.051,2.051A2.053,2.053,0,0,0,214.051,210Z" transform="translate(-212 -210)" fill="#001a4b"/>
    </g>
  </g>
  <g id="Group_10" data-name="Group 10">
    <g id="Group_9" data-name="Group 9">
      <path id="Path_74" data-name="Path 74" d="M10.623,0a10.665,10.665,0,0,0,0,21.33A10.778,10.778,0,0,0,21.33,10.623,10.707,10.707,0,0,0,10.623,0Zm4.458,13.748a2.5,2.5,0,0,1-2.042-1.066,3.126,3.126,0,1,1-.458-4.542V8.124a.625.625,0,1,1,1.25,0v3.125a1.25,1.25,0,0,0,2.5,0C16.331,7.066,13.563,5,10.707,5a5.624,5.624,0,0,0,0,11.248,5.564,5.564,0,0,0,3.419-1.158.625.625,0,0,1,.762.991,6.807,6.807,0,0,1-4.18,1.417,6.874,6.874,0,1,1,0-13.748c3.454,0,6.874,2.547,6.874,7.5A2.5,2.5,0,0,1,15.081,13.748Z" fill="#001a4b"/>
    </g>
  </g>
</svg>
