<svg id="at" xmlns="http://www.w3.org/2000/svg" width="22" height="22" viewBox="0 0 22 22">
  <g id="Group_34" data-name="Group 34" transform="translate(9.035 8.949)">
    <g id="Group_33" data-name="Group 33">
      <path id="Path_160" data-name="Path 160" d="M214.008,210a2.008,2.008,0,1,0,2.008,2.008A2.01,2.01,0,0,0,214.008,210Z" transform="translate(-212 -210)" fill="#0eafed"/>
    </g>
  </g>
  <g id="Group_36" data-name="Group 36">
    <g id="Group_35" data-name="Group 35">
      <path id="Path_161" data-name="Path 161" d="M10.957,0a11,11,0,0,0,0,22A11.117,11.117,0,0,0,22,10.957,11.043,11.043,0,0,0,10.957,0Zm4.6,14.18a2.573,2.573,0,0,1-2.106-1.1A3.224,3.224,0,1,1,12.977,8.4V8.379a.645.645,0,0,1,1.289,0V11.6a1.289,1.289,0,1,0,2.578,0c0-4.314-2.854-6.445-5.8-6.445a5.8,5.8,0,1,0,0,11.6,5.739,5.739,0,0,0,3.526-1.195.645.645,0,0,1,.786,1.022,7.02,7.02,0,0,1-4.312,1.462,7.09,7.09,0,0,1,0-14.18c3.562,0,7.09,2.627,7.09,7.734A2.581,2.581,0,0,1,15.555,14.18Z" fill="#0eafed"/>
    </g>
  </g>
</svg>
