<svg xmlns="http://www.w3.org/2000/svg" width="21.332" height="21.332" viewBox="0 0 21.332 21.332">
  <g id="call" transform="translate(0 0)">
    <g id="Group_6" data-name="Group 6" transform="translate(0 0)">
      <path id="Path_72" data-name="Path 72" d="M18.207,3.123a10.666,10.666,0,1,0,3.125,7.541A10.666,10.666,0,0,0,18.207,3.123ZM16.153,14.857h0v0l-.54.537a2.844,2.844,0,0,1-2.684.768,9.451,9.451,0,0,1-2.745-1.23,12.681,12.681,0,0,1-2.165-1.746A12.779,12.779,0,0,1,6.4,11.222a9.954,9.954,0,0,1-1.216-2.46,2.844,2.844,0,0,1,.711-2.9l.633-.633a.452.452,0,0,1,.639,0h0l2,2a.452.452,0,0,1,0,.639h0L7.992,9.035a.956.956,0,0,0-.1,1.244,13.722,13.722,0,0,0,1.4,1.639,13.637,13.637,0,0,0,1.849,1.554.963.963,0,0,0,1.23-.107l1.134-1.152a.452.452,0,0,1,.639,0h0l2,2.005A.451.451,0,0,1,16.153,14.857Z" transform="translate(0 0)" fill="#001a4b"/>
    </g>
  </g>
</svg>
