<svg xmlns="http://www.w3.org/2000/svg" width="57" height="57" viewBox="0 0 57 57">
  <path id="global" d="M28,0A28,28,0,1,0,56,28,28,28,0,0,0,28,0ZM52.216,37.809l-7.963,1.374a41.784,41.784,0,0,0,1.465-10.25H54.11a25.96,25.96,0,0,1-1.894,8.876ZM1.89,28.933h8.392a41.784,41.784,0,0,0,1.465,10.25L3.784,37.809A25.96,25.96,0,0,1,1.89,28.933ZM3.784,18.191l7.963-1.374a41.784,41.784,0,0,0-1.465,10.25H1.89a25.96,25.96,0,0,1,1.894-8.876Zm25.149-3.205a64.207,64.207,0,0,1,10.006.914l3.294.568a40.062,40.062,0,0,1,1.619,10.6H28.933Zm10.324-.926a66.158,66.158,0,0,0-10.324-.941V1.919c5.351.514,10,5.413,12.633,12.543Zm-12.19-.941a66.146,66.146,0,0,0-10.323.941l-2.31.4C17.068,7.328,21.716,2.427,27.067,1.915Zm-10,2.78a64.19,64.19,0,0,1,10-.914V27.067H12.147a40.063,40.063,0,0,1,1.619-10.6ZM12.147,28.933H27.067V41.014A64.207,64.207,0,0,1,17.061,40.1l-3.294-.568a40.063,40.063,0,0,1-1.619-10.6Zm4.6,13.007a66.38,66.38,0,0,0,10.324.946v11.2c-5.351-.515-10-5.414-12.633-12.544Zm12.19.946a66.374,66.374,0,0,0,10.323-.946l2.31-.4c-2.634,7.132-7.282,12.033-12.633,12.544Zm10-2.785a64.191,64.191,0,0,1-10,.914V28.933H43.852a40.063,40.063,0,0,1-1.619,10.6Zm6.78-13.034a41.784,41.784,0,0,0-1.465-10.25l7.963,1.374a25.96,25.96,0,0,1,1.894,8.876Zm5.554-10.933-7.633-1.317A25.737,25.737,0,0,0,36.213,3.2,26.257,26.257,0,0,1,51.272,16.134ZM19.787,3.2a25.737,25.737,0,0,0-7.426,11.62L4.728,16.134A26.258,26.258,0,0,1,19.787,3.2ZM4.728,39.866l7.633,1.317A25.737,25.737,0,0,0,19.787,52.8,26.257,26.257,0,0,1,4.728,39.866ZM36.213,52.8a25.737,25.737,0,0,0,7.426-11.62l7.633-1.317A26.258,26.258,0,0,1,36.213,52.8Zm0,0" transform="translate(0.5 0.5)" fill="#0eafed" stroke="#0eafed" stroke-width="1"/>
</svg>
