<svg xmlns="http://www.w3.org/2000/svg" width="302.536" height="302.536" viewBox="0 0 302.536 302.536">
  <path id="global" d="M151.268,0A151.268,151.268,0,1,0,302.536,151.268,151.269,151.269,0,0,0,151.268,0ZM282.094,204.261l-43.019,7.423a225.734,225.734,0,0,0,7.915-55.374h45.336a140.247,140.247,0,0,1-10.232,47.951ZM10.21,156.31H55.546a225.737,225.737,0,0,0,7.915,55.374l-43.019-7.423A140.248,140.248,0,0,1,10.21,156.31ZM20.442,98.275l43.019-7.423a225.736,225.736,0,0,0-7.915,55.374H10.21A140.247,140.247,0,0,1,20.442,98.275ZM156.31,80.959A346.876,346.876,0,0,1,210.364,85.9l17.8,3.07a216.436,216.436,0,0,1,8.748,57.26h-80.6Zm55.773-5a357.413,357.413,0,0,0-55.773-5.082V10.368c28.907,2.777,54.017,29.244,68.248,67.763Zm-65.857-5.082a357.351,357.351,0,0,0-55.768,5.082l-12.48,2.159c14.231-38.529,39.341-65.006,68.248-67.77ZM92.176,85.9a346.785,346.785,0,0,1,54.049-4.936v65.267h-80.6a216.438,216.438,0,0,1,8.748-57.26ZM65.626,156.311h80.6v65.267a346.875,346.875,0,0,1-54.054-4.936l-17.8-3.07a216.436,216.436,0,0,1-8.748-57.26ZM90.453,226.58a358.615,358.615,0,0,0,55.773,5.109V292.2c-28.907-2.78-54.017-29.247-68.248-67.766Zm65.857,5.109a358.58,358.58,0,0,0,55.768-5.109l12.48-2.159c-14.231,38.529-39.341,65.006-68.248,67.77Zm54.049-15.048a346.785,346.785,0,0,1-54.049,4.936V156.31h80.6a216.439,216.439,0,0,1-8.748,57.26Zm36.63-70.415a225.736,225.736,0,0,0-7.915-55.374l43.019,7.423a140.248,140.248,0,0,1,10.232,47.951Zm30-59.064-41.237-7.115a139.044,139.044,0,0,0-40.117-62.777,141.852,141.852,0,0,1,81.353,69.893ZM106.9,17.268A139.044,139.044,0,0,0,66.78,80.046L25.543,87.161A141.855,141.855,0,0,1,106.9,17.268ZM25.544,215.375,66.78,222.49A139.044,139.044,0,0,0,106.9,285.267a141.852,141.852,0,0,1-81.353-69.893Zm170.1,69.893a139.043,139.043,0,0,0,40.117-62.777l41.237-7.115a141.855,141.855,0,0,1-81.353,69.893Zm0,0" fill="#0eafed" opacity="0.19"/>
</svg>
