<svg xmlns="http://www.w3.org/2000/svg" width="277.055" height="271.103" viewBox="0 0 277.055 271.103">
  <g id="research" transform="translate(0 -5.5)" opacity="0.19">
    <path id="Path_78" data-name="Path 78" d="M168.617,240.95H157.282a5.411,5.411,0,0,0,0,10.822h11.335v3.5a5.412,5.412,0,0,0,5.411,5.411h3.514v11.3a5.411,5.411,0,0,0,10.822,0v-11.3h10.617v19.555a5.411,5.411,0,1,0,10.822,0V260.681h10.617v11.3a5.411,5.411,0,0,0,10.822,0v-11.3h3.53a5.411,5.411,0,0,0,5.411-5.411v-3.5h11.32a5.411,5.411,0,1,0,0-10.822h-11.32V230.373h19.587a5.411,5.411,0,1,0,0-10.822H240.186V208.974h11.32a5.411,5.411,0,1,0,0-10.822h-11.32v-3.513a5.411,5.411,0,0,0-5.411-5.411h-3.53V177.938a5.411,5.411,0,1,0-10.822,0v11.289H209.805V169.688a5.411,5.411,0,1,0-10.822,0v19.539H188.365V177.938a5.411,5.411,0,1,0-10.822,0v11.289h-3.514a5.411,5.411,0,0,0-5.411,5.411v3.513H157.282a5.411,5.411,0,1,0,0,10.822h11.335v10.577h-19.6a5.411,5.411,0,0,0,0,10.822h19.6Zm10.822-40.9h49.924v49.808H179.44Z" transform="translate(-65.836 -94.962)" fill="#0eafed"/>
    <path id="Path_79" data-name="Path 79" d="M18.892,147.213a18.9,18.9,0,0,0,18.079-13.439H52.4A85.375,85.375,0,0,0,67.929,177.9a87.083,87.083,0,0,0,9.609,11.408v24.761H60.758a18.852,18.852,0,1,0,0,10.822H82.95a5.411,5.411,0,0,0,5.411-5.411V198.461a86.114,86.114,0,0,0,16.23,9.115V243.4a14.971,14.971,0,0,0-11.625,14.57v3.689A14.966,14.966,0,0,0,107.917,276.6h6.348a5.411,5.411,0,1,0,0-10.822h-6.348a4.131,4.131,0,0,1-4.128-4.125v-3.689a4.131,4.131,0,0,1,4.128-4.125h61.267a4.189,4.189,0,0,1,4.143,4.125v3.689a4.189,4.189,0,0,1-4.143,4.125h-4.877a5.411,5.411,0,0,0,0,10.822h4.877a14.973,14.973,0,0,0,14.965-14.947v-3.689A14.974,14.974,0,0,0,172.51,243.4V207.558a86.124,86.124,0,0,0,16.184-9.1v21.024a5.411,5.411,0,0,0,5.411,5.411h22.208a18.864,18.864,0,1,0,0-10.822h-16.8V189.311a87.1,87.1,0,0,0,9.621-11.427,85.372,85.372,0,0,0,15.513-44.111h15.434a18.864,18.864,0,1,0,0-10.822H224.646a85.824,85.824,0,0,0-25.129-55.472V42.635h16.8a18.852,18.852,0,1,0,0-10.822H194.105a5.411,5.411,0,0,0-5.411,5.411v21.09A86.227,86.227,0,0,0,168.553,47.6V26.127a5.411,5.411,0,0,0-10.822,0V44.374A86.09,86.09,0,0,0,143.939,42.4V10.911a5.411,5.411,0,1,0-10.822,0V42.4a86.142,86.142,0,0,0-13.792,1.978V26.127a5.411,5.411,0,0,0-10.822,0V47.6a86.227,86.227,0,0,0-20.141,10.71V37.224a5.411,5.411,0,0,0-5.411-5.411H60.757a18.864,18.864,0,1,0,0,10.822H77.539V67.479a85.824,85.824,0,0,0-25.129,55.472H36.972a18.878,18.878,0,1,0-18.081,24.262Zm23.771,80.3a8.036,8.036,0,1,1,8.069-8.028A8.05,8.05,0,0,1,42.663,227.513Zm191.73-16.072a8.036,8.036,0,1,1-8.054,8.044A8.066,8.066,0,0,1,234.393,211.441Zm23.786-91.123a8.036,8.036,0,1,1-8.069,8.044A8.057,8.057,0,0,1,258.179,120.318ZM234.393,29.2a8.036,8.036,0,1,1-8.054,8.028A8.058,8.058,0,0,1,234.393,29.2ZM42.663,45.268a8.036,8.036,0,1,1,8.069-8.044A8.058,8.058,0,0,1,42.663,45.268Zm95.865,7.776a75.305,75.305,0,0,1,26.662,145.8,5.411,5.411,0,0,0-3.5,5.063v39.117H115.415v-39.1a5.41,5.41,0,0,0-3.506-5.064A75.3,75.3,0,0,1,138.528,53.044ZM18.892,120.318a8.036,8.036,0,1,1-8.069,8.044A8.058,8.058,0,0,1,18.892,120.318Z" transform="translate(0 0)" fill="#0eafed"/>
    <path id="Path_80" data-name="Path 80" d="M251.371,5.5h-.031a5.426,5.426,0,1,0,.031,0Z" transform="translate(-112.812 260.281)" fill="#0eafed"/>
  </g>
</svg>
