<svg id="Layer_1" data-name="Layer 1" xmlns="http://www.w3.org/2000/svg" viewBox="0 0 1205.28 284.09"><defs><style>.cls-1{fill:#00aeef;}.cls-2{fill:#001a4b;}.cls-3{fill:#fff;}.cls-4{fill:#999;}</style></defs><title>y</title><path class="cls-1" d="M514.7,694h-.1c-39.62,0-75.93-24-105.67-39-8.83-4.46-31.89-17.67-39.08-21.07-26.53-12.54-43.06-17.67-58.84-20.65-14.8-2.8-44.17-.74-44.44-.71h0c1.21-.18,17.66-10,45.76-9.83,16.7.13,35.57,2.86,80.58,24.37,7.95,3.81,24.55,12.33,34,16.47,34.68,15.15,55.6,27.87,87.6,27.88h.08c29.45,0,56.31-12.26,71.49-28.32,14.38-15.22,23.9-36.51,18.44-77.28l20,2.72c1.4,24.3,5.72,47.57-17.58,81.13C601,658.29,580.11,690,514.7,694Z" transform="translate(-266.57 -466.38)"/><path class="cls-2" d="M428.34,633.52v-1.35a19.66,19.66,0,0,0,5.5-.95,9.91,9.91,0,0,0,3.78-2.48A9.79,9.79,0,0,0,440.1,624a45,45,0,0,0,.65-9l.06-11.52a17.54,17.54,0,0,0-1-5.5,37.78,37.78,0,0,0-4.6-8.74l-15.3-23-2.72-4.14a19.26,19.26,0,0,0-5.91-6.14,10.63,10.63,0,0,0-2.95-1.24,23,23,0,0,0-4.14-.47v-1.36H442.7v1.36a23.44,23.44,0,0,0-6.26.88,5.14,5.14,0,0,0-3.31,5.14,7.72,7.72,0,0,0,.74,3.07,32.29,32.29,0,0,0,2.39,4.32l16,25L466,571.32l1.54-2.42a12.49,12.49,0,0,0,2.19-6.74,7.26,7.26,0,0,0-2.43-5.85,10.18,10.18,0,0,0-6.79-2.06v-1.36h27.17v1.36a18.47,18.47,0,0,0-4.72,1,11.64,11.64,0,0,0-3.37,2.22,63.37,63.37,0,0,0-8.92,11.28l-13.47,20.56a25.06,25.06,0,0,0-2.95,5.37,21.69,21.69,0,0,0-.53,5.79V615a45.62,45.62,0,0,0,.62,9.06,9.66,9.66,0,0,0,2.51,4.7q3.24,3.42,9.27,3.43v1.35Z" transform="translate(-266.57 -466.38)"/><path class="cls-2" d="M507.48,563.58V615a43,43,0,0,0,.68,9,10,10,0,0,0,2.51,4.79,9.88,9.88,0,0,0,3.75,2.48,19.29,19.29,0,0,0,5.47.95v1.35H492.65v-1.35a19.29,19.29,0,0,0,5.47-.95,9.88,9.88,0,0,0,3.75-2.48,10,10,0,0,0,2.51-4.82,43.08,43.08,0,0,0,.68-8.94v-43.6a42.8,42.8,0,0,0-.68-8.89,10,10,0,0,0-2.51-4.82,9.45,9.45,0,0,0-3.69-2.48,19.18,19.18,0,0,0-5.53-.94v-1.36H515.4l48,61.2V571.44a43.13,43.13,0,0,0-.68-9,9.94,9.94,0,0,0-6.26-7.27,19,19,0,0,0-5.47-.94v-1.36h27.23v1.36q-5.91,0-9.21,3.42a10,10,0,0,0-2.51,4.82,42.11,42.11,0,0,0-.68,8.89v62.14h-2.66Z" transform="translate(-266.57 -466.38)"/><path class="cls-2" d="M491,750.48c-47.81,0-92.86-26.26-123.6-72.06-11.31-16.85-28.86-44.86-60.57-52.21h0c39.81,9.23,68.36,29.42,76.84,40.4C401.21,689.28,435.33,729.4,491,729.4a121,121,0,1,0,0-241.94c-63.21,0-116.21,49.32-120.67,112.29,0,0-20.28-9.5-19.66-13.43,10.7-68.15,70.16-119.94,140.33-119.94,78.32,0,142,63.73,142,142S569.33,750.48,491,750.48Z" transform="translate(-266.57 -466.38)"/><path class="cls-1" d="M399.34,663.73c9.64,7.32,19.07,14.87,29,21.58A124.5,124.5,0,0,0,460,701.18c2.81,1,5.65,1.82,8.53,2.59a82.81,82.81,0,0,0,8.61,1.92c5.83,1,11.8,1.55,17.76,2s12,.69,18,.7c3,0,6,0,9-.18,1.5-.07,3-.19,4.49-.35l2.24-.27,2.22-.44a43.59,43.59,0,0,1-8.81,2.3c-3,.52-6,.87-9,1.15a178.6,178.6,0,0,1-18.22.61,151.69,151.69,0,0,1-18.27-1.33,77.53,77.53,0,0,1-9.09-1.88c-3-.76-5.9-1.62-8.81-2.57a109.21,109.21,0,0,1-16.94-7.29,120.9,120.9,0,0,1-15.4-10A239.18,239.18,0,0,1,399.34,663.73Z" transform="translate(-266.57 -466.38)"/><path class="cls-3" d="M490.39,684.37l.59-.67a3.06,3.06,0,0,0,2.14,1c1,0,1.61-.51,1.61-1.26s-.56-1-1.29-1.36l-1.11-.49a2.17,2.17,0,0,1-1.56-2,2.2,2.2,0,0,1,2.43-2,3.2,3.2,0,0,1,2.28,1l-.52.64a2.48,2.48,0,0,0-1.76-.73c-.87,0-1.44.44-1.44,1.13s.67,1,1.28,1.28l1.1.48a2.13,2.13,0,0,1,1.59,2.06c0,1.23-1,2.2-2.63,2.2A3.7,3.7,0,0,1,490.39,684.37Z" transform="translate(-266.57 -466.38)"/><path class="cls-3" d="M497.43,677.65h1v7.73h-1Z" transform="translate(-266.57 -466.38)"/><path class="cls-3" d="M500.57,677.65h1l2.8,4.86.83,1.6h.05c-.05-.78-.12-1.65-.12-2.46v-4h.93v7.73h-1l-2.79-4.87-.84-1.59h-.05c.05.78.13,1.6.13,2.41v4h-.93Z" transform="translate(-266.57 -466.38)"/><path class="cls-3" d="M508,681.52c0-2.49,1.47-4,3.43-4a2.87,2.87,0,0,1,2.13,1l-.54.64a2.13,2.13,0,0,0-1.57-.73c-1.46,0-2.43,1.2-2.43,3.12s.92,3.17,2.39,3.17a2.33,2.33,0,0,0,1.79-.87l.54.61a3,3,0,0,1-2.37,1.12C509.4,685.52,508,684,508,681.52Z" transform="translate(-266.57 -466.38)"/><path class="cls-3" d="M515.43,677.65h4.45v.83h-3.47v2.42h2.93v.84h-2.93v2.81H520v.83h-4.57Z" transform="translate(-266.57 -466.38)"/><path class="cls-3" d="M524.46,684.57h1.72V679h-1.37v-.62a4.46,4.46,0,0,0,1.6-.55h.74v6.7h1.55v.81h-4.24Z" transform="translate(-266.57 -466.38)"/><path class="cls-3" d="M530.1,684.73l.54-.61a1.63,1.63,0,0,0,1.23.59c1.09,0,2-.85,2-3.37,0-1.85-.6-2.85-1.68-2.85-.73,0-1.31.65-1.31,1.65s.46,1.59,1.4,1.59a2.05,2.05,0,0,0,1.61-1.06l0,.76a2.43,2.43,0,0,1-1.82,1,2,2,0,0,1-2.14-2.32,2.26,2.26,0,0,1,2.22-2.41c1.48,0,2.59,1.2,2.59,3.61,0,3-1.36,4.18-2.86,4.18A2.37,2.37,0,0,1,530.1,684.73Z" transform="translate(-266.57 -466.38)"/><path class="cls-3" d="M535.76,684.46l.49-.63a2.55,2.55,0,0,0,1.92.88,1.4,1.4,0,0,0,1.56-1.37c0-.9-.62-1.49-2.4-1.49v-.75c1.59,0,2.13-.61,2.13-1.4a1.16,1.16,0,0,0-1.29-1.19,2.27,2.27,0,0,0-1.61.77l-.52-.62a3.09,3.09,0,0,1,2.16-.93c1.31,0,2.25.69,2.25,1.9a1.85,1.85,0,0,1-1.37,1.79v0a2,2,0,0,1,1.63,1.91,2.23,2.23,0,0,1-2.48,2.15A3.17,3.17,0,0,1,535.76,684.46Z" transform="translate(-266.57 -466.38)"/><path class="cls-3" d="M542,681.91c0-3,1.37-4.18,2.86-4.18a2.38,2.38,0,0,1,1.81.79l-.53.6a1.67,1.67,0,0,0-1.24-.59c-1.08,0-2,.86-2,3.38,0,1.85.6,2.85,1.68,2.85.74,0,1.31-.66,1.31-1.65s-.46-1.59-1.39-1.59a2.05,2.05,0,0,0-1.62,1.06l0-.77a2.39,2.39,0,0,1,1.81-1,2,2,0,0,1,2.14,2.32,2.26,2.26,0,0,1-2.22,2.41C543.09,685.52,542,684.32,542,681.91Z" transform="translate(-266.57 -466.38)"/><path class="cls-1" d="M701.4,636.66l-11.64-23.72H695l5,10.94c1.24,2.85,2.41,5.54,3.75,8.44H704c1.34-2.9,2.67-5.59,3.86-8.44l5-10.94H718l-11.64,23.72v15H701.4Z" transform="translate(-266.57 -466.38)"/><path class="cls-1" d="M724.55,612.94h22.32v4.18H729.48v12.13h14.67v4.17H729.48V647.5h18v4.17H724.55Z" transform="translate(-266.57 -466.38)"/><path class="cls-1" d="M757.64,612.94h4.93v16.22h18V612.94h4.93v38.73h-4.93V633.46h-18v18.21h-4.93Z" transform="translate(-266.57 -466.38)"/><path class="cls-1" d="M798.1,612.94H803v38.73H798.1Z" transform="translate(-266.57 -466.38)"/><path class="cls-1" d="M823.58,612.94h5.56l13.1,38.73H837L830.27,630c-1.39-4.33-2.64-8.58-3.88-13h-.24c-1.19,4.49-2.44,8.72-3.83,13l-6.83,21.63h-5Zm-6.21,23H835.2v3.93H817.37Z" transform="translate(-266.57 -466.38)"/><path class="cls-1" d="M863.26,612.94h5.09l14,24.35,4.18,8h.23c-.25-3.91-.62-8.27-.62-12.32v-20h4.68v38.73h-5.09l-14-24.37-4.18-8h-.24c.25,3.92.63,8,.63,12.09v20.27h-4.68Z" transform="translate(-266.57 -466.38)"/><path class="cls-1" d="M911.39,612.94H917l13.1,38.73h-5.22L918.07,630c-1.39-4.33-2.63-8.58-3.87-13H914c-1.2,4.49-2.44,8.72-3.83,13l-6.83,21.63h-5Zm-6.22,23H923v3.93H905.17Z" transform="translate(-266.57 -466.38)"/><path class="cls-1" d="M934.06,646.2l3.49-2.48c1.75,3.07,3.93,4.33,6.71,4.33,4.13,0,6.18-2.35,6.18-8.23V612.94h4.93v27.33c0,6.71-3.08,12.11-10.67,12.11A11.34,11.34,0,0,1,934.06,646.2Z" transform="translate(-266.57 -466.38)"/><path class="cls-1" d="M967.8,612.94h4.93v38.73H967.8Z" transform="translate(-266.57 -466.38)"/><path class="cls-1" d="M985.32,612.94h11.49c7.88,0,13.32,2.68,13.32,9.49,0,3.83-2,7.23-5.66,8.41v.23c4.63.92,7.88,4,7.88,9.27,0,7.61-6,11.33-14.66,11.33H985.32ZM996,629.42c6.58,0,9.31-2.43,9.31-6.35,0-4.53-3.1-6.22-9.09-6.22h-6v12.57Zm1,18.34c6.63,0,10.53-2.38,10.53-7.6,0-4.78-3.75-7-10.53-7h-6.74v14.56Z" transform="translate(-266.57 -466.38)"/><path class="cls-1" d="M1035.82,612.94h22.32v4.18h-17.39v12.13h14.67v4.17h-14.67V647.5h18v4.17h-22.91Z" transform="translate(-266.57 -466.38)"/><path class="cls-1" d="M1066.1,646.63l3-3.38a15.15,15.15,0,0,0,10.69,4.8c5.08,0,8.09-2.54,8.09-6.3,0-4-2.8-5.21-6.46-6.81l-5.56-2.45c-3.61-1.54-7.84-4.28-7.84-10,0-5.91,5.15-10.27,12.19-10.27a16,16,0,0,1,11.4,4.79L1089,620.2a12.38,12.38,0,0,0-8.79-3.63c-4.34,0-7.22,2.19-7.22,5.65,0,3.73,3.38,5.13,6.41,6.41l5.52,2.39c4.48,1.93,8,4.6,8,10.35,0,6.12-5.06,11-13.2,11A18.6,18.6,0,0,1,1066.1,646.63Z" transform="translate(-266.57 -466.38)"/><path class="cls-1" d="M1109.29,617.12h-11.72v-4.18h28.36v4.18h-11.71v34.55h-4.93Z" transform="translate(-266.57 -466.38)"/><path class="cls-1" d="M1140.47,612.94H1146l13.1,38.73h-5.22L1147.16,630c-1.39-4.33-2.64-8.58-3.88-13H1143c-1.19,4.49-2.44,8.72-3.83,13l-6.83,21.63h-5Zm-6.21,23h17.83v3.93h-17.83Z" transform="translate(-266.57 -466.38)"/><path class="cls-1" d="M1166.35,612.94h11.49c7.88,0,13.32,2.68,13.32,9.49,0,3.83-2,7.23-5.66,8.41v.23c4.63.92,7.88,4,7.88,9.27,0,7.61-6,11.33-14.66,11.33h-12.37ZM1177,629.42c6.58,0,9.31-2.43,9.31-6.35,0-4.53-3.1-6.22-9.09-6.22h-6v12.57Zm1,18.34c6.63,0,10.53-2.38,10.53-7.6,0-4.78-3.75-7-10.53-7h-6.74v14.56Z" transform="translate(-266.57 -466.38)"/><path class="cls-1" d="M1203,612.94H1208V647.5h16.9v4.17H1203Z" transform="translate(-266.57 -466.38)"/><path class="cls-1" d="M1233.71,612.94h4.93v38.73h-4.93Z" transform="translate(-266.57 -466.38)"/><path class="cls-1" d="M1248.42,646.63l2.95-3.38a15.11,15.11,0,0,0,10.68,4.8c5.08,0,8.09-2.54,8.09-6.3,0-4-2.8-5.21-6.45-6.81l-5.57-2.45c-3.61-1.54-7.84-4.28-7.84-10,0-5.91,5.16-10.27,12.19-10.27a16,16,0,0,1,11.4,4.79l-2.61,3.17a12.38,12.38,0,0,0-8.79-3.63c-4.34,0-7.22,2.19-7.22,5.65,0,3.73,3.38,5.13,6.41,6.41l5.52,2.39c4.48,1.93,8,4.6,8,10.35,0,6.12-5.06,11-13.2,11A18.56,18.56,0,0,1,1248.42,646.63Z" transform="translate(-266.57 -466.38)"/><path class="cls-1" d="M1284.72,612.94h4.92v16.22h18V612.94h4.92v38.73h-4.92V633.46h-18v18.21h-4.92Z" transform="translate(-266.57 -466.38)"/><path class="cls-1" d="M1325.17,612.94h5.93l7.43,20.7c.93,2.64,1.82,5.38,2.75,8.07h.24c.93-2.69,1.74-5.43,2.67-8.07l7.34-20.7h5.93v38.73h-4.58V630.35c0-3.38.38-8,.63-11.45h-.24l-3.07,8.83-7.29,20h-3.27l-7.33-20-3.07-8.83H1329c.24,3.42.62,8.07.62,11.45v21.32h-4.46Z" transform="translate(-266.57 -466.38)"/><path class="cls-1" d="M1370.05,612.94h22.32v4.18H1375v12.13h14.67v4.17H1375V647.5h18v4.17h-22.91Z" transform="translate(-266.57 -466.38)"/><path class="cls-1" d="M1403.15,612.94h5.08l14,24.35,4.18,8h.24c-.25-3.91-.63-8.27-.63-12.32v-20h4.68v38.73h-5.09l-14-24.37-4.17-8h-.24c.25,3.92.63,8,.63,12.09v20.27h-4.68Z" transform="translate(-266.57 -466.38)"/><path class="cls-1" d="M1451.37,617.12h-11.72v-4.18H1468v4.18H1456.3v34.55h-4.93Z" transform="translate(-266.57 -466.38)"/><path class="cls-2" d="M720.9,532.18v26.46a2.64,2.64,0,0,0,.7,2,1.89,1.89,0,0,0,1.4.7h1.4v5h-2.94a6.12,6.12,0,0,1-5.11-2.45,16.68,16.68,0,0,1-9.8,3.22,13.73,13.73,0,0,1-11.62-5.74,18.23,18.23,0,0,1-3.5-11.2,17.18,17.18,0,0,1,5-12.67,14.81,14.81,0,0,1,11-4.55,18.34,18.34,0,0,1,7.49,1.68l3-2.38ZM715,539.46a13.75,13.75,0,0,0-6.23-1.54,10.41,10.41,0,0,0-8.61,4.2,12.63,12.63,0,0,0-2.73,8.12q0,5.6,2.66,8.82a8.86,8.86,0,0,0,7,2.94,18,18,0,0,0,7.91-2Zm-6-20.79a3.45,3.45,0,0,1,3.43,3.43,3.4,3.4,0,0,1-1,2.48,3.31,3.31,0,0,1-2.42,1,3.27,3.27,0,0,1-2.41-1,3.37,3.37,0,0,1-1-2.48,3.47,3.47,0,0,1,3.43-3.43Zm8.47,0a3.42,3.42,0,0,1,2.49,1,3.33,3.33,0,0,1,1,2.42,3.47,3.47,0,0,1-3.5,3.5,3.27,3.27,0,0,1-2.41-1,3.37,3.37,0,0,1-1-2.48,3.47,3.47,0,0,1,3.43-3.43Z" transform="translate(-266.57 -466.38)"/><path class="cls-2" d="M742.46,534.07v25.55a6.53,6.53,0,0,1-1.68,4.48,6,6,0,0,1-4.69,2.17H723.91v-5h9.94a2.54,2.54,0,0,0,2-.84,2.46,2.46,0,0,0,.7-1.82V534.07Zm-12.6,39.48a3.45,3.45,0,0,1,3.43,3.43,3.4,3.4,0,0,1-1,2.48,3.31,3.31,0,0,1-2.42,1,3.48,3.48,0,0,1-3.5-3.5,3.3,3.3,0,0,1,1-2.42A3.34,3.34,0,0,1,729.86,573.55Zm8.47,0a3.24,3.24,0,0,1,2.45,1,3.38,3.38,0,0,1,1,2.42,3.45,3.45,0,0,1-1,2.48,3.4,3.4,0,0,1-4.86,0,3.37,3.37,0,0,1-1-2.48,3.47,3.47,0,0,1,3.43-3.43Z" transform="translate(-266.57 -466.38)"/><path class="cls-2" d="M770.53,534.07v31.57q0,7.77-4.41,12.25a17.14,17.14,0,0,1-9.24,4.62,26.63,26.63,0,0,1-4.9.42c-1.12,0-2.19,0-3.22-.07L746.45,580v-2.24a33.39,33.39,0,0,0,4.41.28q13.73,0,13.72-12.6V534.07Z" transform="translate(-266.57 -466.38)"/><path class="cls-2" d="M786.21,516.15v42.49a2.71,2.71,0,0,0,.7,1.89,2.67,2.67,0,0,0,2,.77h.91v5h-3.22a5.76,5.76,0,0,1-3.92-1.47,6.51,6.51,0,0,1-2.38-5.18V516.15Z" transform="translate(-266.57 -466.38)"/><path class="cls-2" d="M798.6,535.26a39.91,39.91,0,0,1,12-2q8.67,0,13.23,5.39,3.92,4.62,3.92,12.11v8.89a6.9,6.9,0,0,1-.21,1.68H830v5h-1.47l-2-2.45h-.21a6,6,0,0,1-4.9,2.45h-32.2v-5h29.89a2.35,2.35,0,0,0,2.66-2.66v-8.12q0-5.46-2.87-8.61-3.15-3.51-9.17-3.5A62.12,62.12,0,0,0,798.6,540Zm8.33,38.29a3.34,3.34,0,0,1,2.48,1,3.3,3.3,0,0,1,1,2.42,3.48,3.48,0,0,1-3.5,3.5,3.3,3.3,0,0,1-2.42-1,3.4,3.4,0,0,1-1-2.48,3.33,3.33,0,0,1,1-2.42A3.29,3.29,0,0,1,806.93,573.55Z" transform="translate(-266.57 -466.38)"/><path class="cls-2" d="M848.09,534.07v25.55a6.9,6.9,0,0,1-.21,1.68h3.71v5h-2.73l-2-2.45h-.21a5.93,5.93,0,0,1-4.9,2.45H829.54v-5h9.94a2.5,2.5,0,0,0,1.82-.7,2.56,2.56,0,0,0,.84-2V534.07Zm-11.34-15.4a3.3,3.3,0,0,1,2.45,1,3.38,3.38,0,0,1,1,2.42,3.45,3.45,0,0,1-1,2.48,3.42,3.42,0,0,1-4.87,0,3.4,3.4,0,0,1-1-2.48,3.45,3.45,0,0,1,3.43-3.43Zm8.54,0a3.47,3.47,0,0,1,3.43,3.43,3.37,3.37,0,0,1-1,2.48,3.27,3.27,0,0,1-2.41,1,3.47,3.47,0,0,1-3.5-3.5,3.33,3.33,0,0,1,1-2.42A3.42,3.42,0,0,1,845.29,518.67Z" transform="translate(-266.57 -466.38)"/><path class="cls-2" d="M869.65,516.15v43.47a6.42,6.42,0,0,1-1.82,4.62,6,6,0,0,1-4.55,2H851.1v-5H861a2.44,2.44,0,0,0,2-.91,2.71,2.71,0,0,0,.63-1.75V516.15Z" transform="translate(-266.57 -466.38)"/><path class="cls-2" d="M885.26,516.15v49.42l-3,2.45h-2.94V516.15Z" transform="translate(-266.57 -466.38)"/><path class="cls-2" d="M965.13,534.07v25.55a6.44,6.44,0,0,1-.21,1.68h3.78v5h-2.52l-2.31-2.45h-.14a6,6,0,0,1-4.9,2.45h-40a10.32,10.32,0,0,1-6.93-2.59,11,11,0,0,1-4.06-9V541.56l3-2.45h2.94v15.61a6.28,6.28,0,0,0,1.89,4.62,6.73,6.73,0,0,0,4.83,2h36a2.77,2.77,0,0,0,2-.84,2.63,2.63,0,0,0,.63-1.82V534.07ZM936.5,573.55a3.47,3.47,0,0,1,3.43,3.43,3.37,3.37,0,0,1-1,2.48,3.29,3.29,0,0,1-2.41,1A3.47,3.47,0,0,1,933,577a3.29,3.29,0,0,1,1-2.42A3.38,3.38,0,0,1,936.5,573.55Z" transform="translate(-266.57 -466.38)"/><path class="cls-2" d="M986.69,534.07v25.55a6.9,6.9,0,0,1-.21,1.68h3.71v5h-2.73l-2-2.45h-.21a5.93,5.93,0,0,1-4.9,2.45H968.14v-5h9.94a2.5,2.5,0,0,0,1.82-.7,2.56,2.56,0,0,0,.84-2V534.07Zm-12,39.48a3.47,3.47,0,0,1,3.43,3.43,3.37,3.37,0,0,1-1,2.48,3.37,3.37,0,0,1-4.83,0,3.36,3.36,0,0,1-1-2.48,3.45,3.45,0,0,1,3.43-3.43Zm8.47,0a3.36,3.36,0,0,1,2.48,1,3.3,3.3,0,0,1,1,2.42,3.48,3.48,0,0,1-3.5,3.5,3.3,3.3,0,0,1-2.42-1,3.36,3.36,0,0,1-1-2.48,3.45,3.45,0,0,1,3.43-3.43Z" transform="translate(-266.57 -466.38)"/><path class="cls-2" d="M999,535.26a39.91,39.91,0,0,1,12-2q8.67,0,13.23,5.39,3.92,4.62,3.92,12.11v8.89a6.9,6.9,0,0,1-.21,1.68h2.45v5H1029l-2-2.45h-.21a6,6,0,0,1-4.9,2.45H989.7v-5h29.89a2.35,2.35,0,0,0,2.66-2.66v-8.12q0-5.46-2.87-8.61-3.15-3.51-9.17-3.5A62.12,62.12,0,0,0,999,540Zm8.33,38.29a3.36,3.36,0,0,1,2.48,1,3.3,3.3,0,0,1,1,2.42,3.48,3.48,0,0,1-3.5,3.5,3.3,3.3,0,0,1-2.42-1,3.36,3.36,0,0,1-1-2.48,3.45,3.45,0,0,1,3.43-3.43Z" transform="translate(-266.57 -466.38)"/><path class="cls-2" d="M1048.5,534.07v25.55a6.53,6.53,0,0,1-1.68,4.48,6,6,0,0,1-4.69,2.17H1030v-5h9.94a2.56,2.56,0,0,0,2-.84,2.5,2.5,0,0,0,.7-1.82V534.07Zm-3-15.4a3.4,3.4,0,0,1,2.48,1,3.3,3.3,0,0,1,1,2.42,3.48,3.48,0,0,1-3.5,3.5,3.3,3.3,0,0,1-2.42-1,3.36,3.36,0,0,1-1-2.48,3.29,3.29,0,0,1,1-2.42A3.33,3.33,0,0,1,1045.49,518.67Z" transform="translate(-266.57 -466.38)"/><path class="cls-2" d="M1134.38,534.07v25.55a9.52,9.52,0,0,1-.14,1.68H1138v5h-2.73l-2-2.45H1133a6,6,0,0,1-4.9,2.45H1116q-.13,7.35-4.41,11.69-5,5-14.14,5h-7.77q-8.75,0-13.71-4.62T1071,565.64v-9.17l3-2.38H1077V565.5q0,6.93,3.64,9.73t12.67,2.8q8.61,0,12.11-2.17,4.41-2.67,4.62-9.59h-5.32l-2.45-3v-2h23.59a2.33,2.33,0,0,0,2.6-2.66V534.07Zm-11.9,39.48a3.45,3.45,0,0,1,3.43,3.43,3.36,3.36,0,0,1-1,2.48,3.3,3.3,0,0,1-2.42,1,3.48,3.48,0,0,1-3.5-3.5,3.3,3.3,0,0,1,1-2.42A3.36,3.36,0,0,1,1122.48,573.55Zm8.47,0a3.23,3.23,0,0,1,2.45,1,3.34,3.34,0,0,1,1,2.42,3.41,3.41,0,0,1-1,2.48,3.24,3.24,0,0,1-2.45,1,3.29,3.29,0,0,1-2.41-1,3.37,3.37,0,0,1-1-2.48,3.47,3.47,0,0,1,3.43-3.43Z" transform="translate(-266.57 -466.38)"/><path class="cls-2" d="M1146.7,535.26a40,40,0,0,1,12-2q8.68,0,13.23,5.39,3.93,4.62,3.92,12.11v8.89a6.9,6.9,0,0,1-.21,1.68h2.45v5h-1.47l-2-2.45h-.21a6,6,0,0,1-4.9,2.45h-32.2v-5h29.89a2.35,2.35,0,0,0,2.66-2.66v-8.12c0-3.64-1-6.51-2.87-8.61q-3.15-3.51-9.17-3.5a62.23,62.23,0,0,0-11.2,1.54Z" transform="translate(-266.57 -466.38)"/><path class="cls-2" d="M1196.19,534.07v25.55a6.53,6.53,0,0,1-1.68,4.48,6,6,0,0,1-4.69,2.17h-12.18v-5h9.94a2.53,2.53,0,0,0,2-.84,2.46,2.46,0,0,0,.7-1.82V534.07Zm-12.6,39.48A3.45,3.45,0,0,1,1187,577a3.36,3.36,0,0,1-1,2.48,3.3,3.3,0,0,1-2.42,1,3.48,3.48,0,0,1-3.5-3.5,3.3,3.3,0,0,1,1-2.42A3.36,3.36,0,0,1,1183.59,573.55Zm8.47,0a3.24,3.24,0,0,1,2.45,1,3.34,3.34,0,0,1,1,2.42,3.41,3.41,0,0,1-1,2.48,3.25,3.25,0,0,1-2.45,1,3.29,3.29,0,0,1-2.41-1,3.37,3.37,0,0,1-1-2.48,3.47,3.47,0,0,1,3.43-3.43Z" transform="translate(-266.57 -466.38)"/><path class="cls-2" d="M1247.22,532.18v26.46a2.64,2.64,0,0,0,.7,2,1.89,1.89,0,0,0,1.4.7h1.4v5h-2.94a6.13,6.13,0,0,1-5.11-2.45,16.68,16.68,0,0,1-9.8,3.22,13.73,13.73,0,0,1-11.62-5.74,18.23,18.23,0,0,1-3.5-11.2,17.18,17.18,0,0,1,5-12.67,14.81,14.81,0,0,1,11-4.55,18.34,18.34,0,0,1,7.49,1.68l3-2.38Zm-6,7.28a13.75,13.75,0,0,0-6.23-1.54,10.41,10.41,0,0,0-8.61,4.2,12.63,12.63,0,0,0-2.73,8.12q0,5.6,2.66,8.82a8.86,8.86,0,0,0,7,2.94,18,18,0,0,0,7.91-2Zm-6-20.79a3.45,3.45,0,0,1,3.43,3.43,3.4,3.4,0,0,1-1,2.48,3.37,3.37,0,0,1-4.83,0,3.37,3.37,0,0,1-1-2.48,3.47,3.47,0,0,1,3.43-3.43Zm8.47,0a3.42,3.42,0,0,1,2.49,1,3.33,3.33,0,0,1,1,2.42,3.47,3.47,0,0,1-3.5,3.5,3.27,3.27,0,0,1-2.41-1,3.37,3.37,0,0,1-1-2.48,3.47,3.47,0,0,1,3.43-3.43Z" transform="translate(-266.57 -466.38)"/><path class="cls-2" d="M1316.8,534.07v25.55a6.44,6.44,0,0,1-.21,1.68h3.78v5h-2.8l-2-2.45h-.21a6,6,0,0,1-4.9,2.45h-13.79l-2-2.45h-.21a6,6,0,0,1-4.9,2.45h-13.79l-2-2.45h-.21a6,6,0,0,1-4.9,2.45h-18.55v-5h16.24a2.35,2.35,0,0,0,2.66-2.66V542.12h5.95v17.5a8.92,8.92,0,0,1-.14,1.68h12.39a2.35,2.35,0,0,0,2.66-2.66V538.06h6v21.56a6.44,6.44,0,0,1-.21,1.68h12.46a2.35,2.35,0,0,0,2.66-2.66V534.07Z" transform="translate(-266.57 -466.38)"/><path class="cls-2" d="M1386.38,534.07v25.55a6.61,6.61,0,0,1-1.85,4.69,5.94,5.94,0,0,1-4.45,2h-13.51l-2.24-2.45h-.21a6,6,0,0,1-4.9,2.45h-13.44l-2.31-2.45h-.21a6,6,0,0,1-4.9,2.45h-18.55v-5h16.24a2.35,2.35,0,0,0,2.66-2.66V542.12h6v17.5a9.84,9.84,0,0,1-.14,1.68h12.39a2.35,2.35,0,0,0,2.66-2.66V538.06h6v21.56a6.44,6.44,0,0,1-.21,1.68h12.46a2.35,2.35,0,0,0,2.66-2.66V534.07Z" transform="translate(-266.57 -466.38)"/><path class="cls-2" d="M1410.88,566.27q-8,0-12.25-5.32-3.57-4.41-3.57-11.34,0-7.92,4.76-12.32,4.28-4.06,11.27-4.06a14.75,14.75,0,0,1,9.1,2.73q4.41,3.42,4.41,10V561.3h2.24v5h-2.24q-.28,7.35-4.41,11.55a16.54,16.54,0,0,1-8.19,4.41,25.65,25.65,0,0,1-6,.7c-1.12,0-2.19,0-3.22-.07l-2.31-2.87v-2.24a34.55,34.55,0,0,0,4.41.28q13.37,0,13.72-11.76Zm7.7-20.3a7.66,7.66,0,0,0-2.1-5.67,7.25,7.25,0,0,0-5.39-2,9.18,9.18,0,0,0-7.38,3.15c-1.8,2.1-2.7,5-2.7,8.75a11.7,11.7,0,0,0,2.73,8.05,9,9,0,0,0,7.07,3.08h7.77Zm-10.78-21.35a7.19,7.19,0,0,1-1.47-4.55,6.12,6.12,0,0,1,1.61-4.41,5.64,5.64,0,0,1,4.27-1.68,9.51,9.51,0,0,1,3.36.63v2.87a8.89,8.89,0,0,0-2.45-.35q-3.64,0-3.64,3.64a3.89,3.89,0,0,0,.91,2.52,3.76,3.76,0,0,0,3,1.33h4.48v1.19l-1.33,1.68h-11.83v-2.87Z" transform="translate(-266.57 -466.38)"/><path class="cls-2" d="M1438.88,546q0-7.14,5-10.5a15.64,15.64,0,0,1,8.75-2.17,15,15,0,0,1,11.13,4.55q4.48,4.54,4.48,12.74a19.16,19.16,0,0,1-4.48,12.88,13.43,13.43,0,0,1-10.64,4.9,12.16,12.16,0,0,1-9.8-4.55,6.05,6.05,0,0,1-5,2.45h-12v-5h9.94a2.57,2.57,0,0,0,1.89-.77,2.6,2.6,0,0,0,.77-1.89Zm5.95,13.72a11.1,11.1,0,0,0,8.05,3.71,8.17,8.17,0,0,0,6.82-3.47,14.5,14.5,0,0,0,2.63-9q0-6.16-3.08-9.73a8.69,8.69,0,0,0-6.86-2.94,7.39,7.39,0,0,0-5.25,1.89,7.58,7.58,0,0,0-2.31,5.81Z" transform="translate(-266.57 -466.38)"/><path class="cls-4" d="M1018.21,700.28l1.34-1.53a6.86,6.86,0,0,0,4.85,2.17c2.3,0,3.67-1.15,3.67-2.85s-1.27-2.37-2.93-3.09l-2.53-1.12c-1.63-.69-3.55-1.94-3.55-4.52s2.34-4.66,5.53-4.66a7.26,7.26,0,0,1,5.17,2.17l-1.19,1.44a5.58,5.58,0,0,0-4-1.65c-2,0-3.28,1-3.28,2.57s1.53,2.32,2.91,2.91l2.5,1.08c2,.87,3.62,2.08,3.62,4.69,0,2.78-2.29,5-6,5A8.44,8.44,0,0,1,1018.21,700.28Z" transform="translate(-266.57 -466.38)"/><path class="cls-4" d="M1034.21,685h2.23v17.57h-2.23Z" transform="translate(-266.57 -466.38)"/><path class="cls-4" d="M1041.33,685h2.31l6.35,11,1.9,3.64h.11c-.11-1.77-.29-3.75-.29-5.59V685h2.13v17.57h-2.31l-6.36-11.06-1.9-3.62h-.1c.11,1.77.28,3.65.28,5.48v9.2h-2.12Z" transform="translate(-266.57 -466.38)"/><path class="cls-4" d="M1058.14,693.8c0-5.67,3.33-9.12,7.79-9.12a6.55,6.55,0,0,1,4.83,2.16l-1.22,1.46a4.78,4.78,0,0,0-3.57-1.66c-3.32,0-5.53,2.72-5.53,7.1s2.11,7.18,5.44,7.18a5.27,5.27,0,0,0,4.07-2l1.23,1.4a6.79,6.79,0,0,1-5.39,2.54C1061.41,702.89,1058.14,699.5,1058.14,693.8Z" transform="translate(-266.57 -466.38)"/><path class="cls-4" d="M1075.11,685h10.12v1.89h-7.89v5.51H1084v1.89h-6.66v6.38h8.16v1.9h-10.39Z" transform="translate(-266.57 -466.38)"/><path class="cls-4" d="M1095.64,700.73h3.91V688.17h-3.11v-1.42a10.46,10.46,0,0,0,3.63-1.25h1.68v15.23h3.52v1.84h-9.63Z" transform="translate(-266.57 -466.38)"/><path class="cls-4" d="M1108.45,701.08l1.23-1.37a3.74,3.74,0,0,0,2.8,1.34c2.47,0,4.52-1.94,4.52-7.67,0-4.19-1.37-6.47-3.81-6.47-1.68,0-3,1.49-3,3.74s1,3.63,3.15,3.63a4.66,4.66,0,0,0,3.67-2.42l.08,1.74a5.47,5.47,0,0,1-4.11,2.33c-3,0-4.87-1.77-4.87-5.28a5.15,5.15,0,0,1,5-5.48c3.37,0,5.89,2.73,5.89,8.21,0,6.87-3.1,9.51-6.5,9.51A5.4,5.4,0,0,1,1108.45,701.08Z" transform="translate(-266.57 -466.38)"/><path class="cls-4" d="M1121.33,700.48l1.1-1.44a5.81,5.81,0,0,0,4.36,2c2.08,0,3.55-1.21,3.55-3.12s-1.4-3.39-5.45-3.39v-1.69c3.62,0,4.84-1.39,4.84-3.18a2.64,2.64,0,0,0-3-2.7,5.16,5.16,0,0,0-3.64,1.73l-1.18-1.4a7.07,7.07,0,0,1,4.9-2.13c3,0,5.11,1.58,5.11,4.34a4.2,4.2,0,0,1-3.1,4v.11a4.44,4.44,0,0,1,3.7,4.34c0,3-2.51,4.88-5.63,4.88A7.21,7.21,0,0,1,1121.33,700.48Z" transform="translate(-266.57 -466.38)"/><path class="cls-4" d="M1135.45,694.68c0-6.87,3.11-9.51,6.51-9.51a5.44,5.44,0,0,1,4.11,1.81l-1.22,1.37A3.74,3.74,0,0,0,1142,687c-2.45,0-4.51,1.94-4.51,7.67,0,4.2,1.36,6.47,3.81,6.47,1.68,0,3-1.49,3-3.74s-1-3.62-3.16-3.62a4.67,4.67,0,0,0-3.67,2.41l-.08-1.74a5.48,5.48,0,0,1,4.12-2.33c3,0,4.87,1.78,4.87,5.28a5.15,5.15,0,0,1-5,5.48C1138,702.89,1135.45,700.16,1135.45,694.68Z" transform="translate(-266.57 -466.38)"/><path class="cls-4" d="M1470.85,694.11h-309.2a4.41,4.41,0,0,1,.08.72,2.66,2.66,0,0,1,0,.28h309.15c.55,0,1-.23,1-.5S1471.4,694.11,1470.85,694.11Z" transform="translate(-266.57 -466.38)"/><path class="cls-4" d="M1001.73,694.83a3.55,3.55,0,0,1,.09-.72H694c-.55,0-1,.22-1,.5s.45.5,1,.5h307.81C1001.76,695,1001.73,694.92,1001.73,694.83Z" transform="translate(-266.57 -466.38)"/></svg>