<svg xmlns="http://www.w3.org/2000/svg" width="21.999" height="21.999" viewBox="0 0 21.999 21.999">
  <g id="call" transform="translate(0 0)">
    <g id="Group_37" data-name="Group 37" transform="translate(0 0)">
      <path id="Path_162" data-name="Path 162" d="M18.776,3.22A11,11,0,1,0,22,11,11,11,0,0,0,18.776,3.22Zm-2.118,12.1h0v0l-.557.554a2.933,2.933,0,0,1-2.768.792A9.746,9.746,0,0,1,10.5,15.4a13.078,13.078,0,0,1-2.233-1.8A13.178,13.178,0,0,1,6.6,11.572,10.265,10.265,0,0,1,5.345,9.035a2.933,2.933,0,0,1,.733-3l.653-.653a.466.466,0,0,1,.659,0h0L9.452,7.448a.466.466,0,0,1,0,.659h0l-1.21,1.21a.986.986,0,0,0-.1,1.283,14.15,14.15,0,0,0,1.448,1.69,14.064,14.064,0,0,0,1.907,1.6.994.994,0,0,0,1.269-.11l1.17-1.188a.466.466,0,0,1,.659,0h0l2.064,2.068A.466.466,0,0,1,16.658,15.322Z" transform="translate(0 0)" fill="#0eafed"/>
    </g>
  </g>
</svg>
