<?xml version="1.0"?>
<svg xmlns="http://www.w3.org/2000/svg" height="512px" viewBox="0 -40 512 511" width="512px"><g><path d="m512 371.554688v-371.054688h-512v371.054688h160.9375v30.050781h-30.039062v30h250.203124v-30h-30.039062v-30.050781zm-30-110.0625h-120.121094v-230.992188h120.121094zm-150.121094-230.992188v230.992188h-301.878906v-230.992188zm-301.878906 260.992188h452v50.0625h-452zm291.0625 110.113281h-130.125v-30.050781h130.125zm0 0" data-original="#000000" class="active-path" data-old_color="#000000" fill="#00AEEF"/><path d="m271.011719 127.53125h30.832031v30h-30.832031zm0 0" data-original="#000000" class="active-path" data-old_color="#000000" fill="#00AEEF"/><path d="m60.035156 127.53125h180.953125v30h-180.953125zm0 0" data-original="#000000" class="active-path" data-old_color="#000000" fill="#00AEEF"/><path d="m60.035156 67.480469h30.832032v30h-30.832032zm0 0" data-original="#000000" class="active-path" data-old_color="#000000" fill="#00AEEF"/><path d="m120.890625 67.480469h180.953125v30h-180.953125zm0 0" data-original="#000000" class="active-path" data-old_color="#000000" fill="#00AEEF"/><path d="m60.035156 187.578125h30.832032v30h-30.832032zm0 0" data-original="#000000" class="active-path" data-old_color="#000000" fill="#00AEEF"/><path d="m120.890625 187.578125h180.953125v30h-180.953125zm0 0" data-original="#000000" class="active-path" data-old_color="#000000" fill="#00AEEF"/><path d="m391.914062 67.480469h60.050782v30h-60.050782zm0 0" data-original="#000000" class="active-path" data-old_color="#000000" fill="#00AEEF"/><path d="m391.914062 127.53125h60.050782v30h-60.050782zm0 0" data-original="#000000" class="active-path" data-old_color="#000000" fill="#00AEEF"/><path d="m391.914062 187.578125h60.050782v30h-60.050782zm0 0" data-original="#000000" class="active-path" data-old_color="#000000" fill="#00AEEF"/></g> </svg>
