<svg xmlns="http://www.w3.org/2000/svg" width="228.458" height="243.386" viewBox="0 0 228.458 243.386">
  <g id="drug" transform="translate(-15.701)" opacity="0.19">
    <g id="Group_15" data-name="Group 15" transform="translate(187.118 59.893)">
      <g id="Group_14" data-name="Group 14" transform="translate(0)">
        <path id="Path_75" data-name="Path 75" d="M120.45,125.994a4.754,4.754,0,1,1-4.754,4.754A4.755,4.755,0,0,1,120.45,125.994Z" transform="translate(-115.696 -125.994)" fill="#0eafed"/>
      </g>
    </g>
    <g id="Group_17" data-name="Group 17" transform="translate(144.338 129.767)">
      <g id="Group_16" data-name="Group 16" transform="translate(0)">
        <path id="Path_76" data-name="Path 76" d="M130.45,292h14.26V277.74a4.753,4.753,0,1,1,9.507,0V292h14.26a4.753,4.753,0,1,1,0,9.507h-14.26v14.26a4.753,4.753,0,1,1-9.507,0v-14.26H130.45a4.753,4.753,0,1,1,0-9.507Z" transform="translate(-125.696 -272.986)" fill="#0eafed"/>
      </g>
    </g>
    <g id="Group_19" data-name="Group 19" transform="translate(15.701)">
      <g id="Group_18" data-name="Group 18">
        <path id="Path_77" data-name="Path 77" d="M20.8,153.059a38.005,38.005,0,0,1,51.945-13.918L92.05,150.288V109.01A23.938,23.938,0,0,1,96.8,94.75L120.57,63.062V49.568a14.283,14.283,0,0,1-9.507-13.443V14.26A14.277,14.277,0,0,1,125.324,0h85.561a14.276,14.276,0,0,1,14.26,14.26V36.126a14.284,14.284,0,0,1-9.507,13.443V63.062l23.769,31.69a23.935,23.935,0,0,1,4.752,14.258v92.059a23.794,23.794,0,0,1-23.767,23.767H144a37.989,37.989,0,0,1-51.655,13.443L34.715,205A38.055,38.055,0,0,1,20.8,153.059ZM215.639,14.26a4.759,4.759,0,0,0-4.753-4.754H125.325a4.759,4.759,0,0,0-4.754,4.754V36.126a4.759,4.759,0,0,0,4.754,4.753h85.561a4.759,4.759,0,0,0,4.753-4.753V14.26ZM231.8,100.453,207.083,67.5a4.753,4.753,0,0,1-.951-2.852V50.386H130.078v9.507h42.78a4.754,4.754,0,0,1,0,9.507H127.7l-23.289,31.052a14.384,14.384,0,0,0-2.753,6.975H234.551A14.376,14.376,0,0,0,231.8,100.453ZM220.392,215.328a14.276,14.276,0,0,0,14.26-14.26v-4.8H148.29a38.088,38.088,0,0,1-.229,19.061h72.33Zm-75.83-28.52h90.09V116.933H101.558v38.843l28.816,16.639A37.745,37.745,0,0,1,144.562,186.808ZM97.1,230.045a28.52,28.52,0,1,0,28.52-49.4l-25.8-14.9-28.52,49.4Zm-57.63-33.273,23.6,13.623L91.585,161l-23.6-13.622a28.52,28.52,0,1,0-28.52,49.4Z" transform="translate(-15.701)" fill="#0eafed"/>
      </g>
    </g>
  </g>
</svg>
