<svg xmlns="http://www.w3.org/2000/svg" width="22" height="22" viewBox="0 0 22 22">
  <g id="Group_59" data-name="Group 59" transform="translate(-862 -2767)">
    <circle id="Ellipse_10" data-name="Ellipse 10" cx="11" cy="11" r="11" transform="translate(862 2767)" fill="#0eafed"/>
    <g id="maps-and-flags" transform="translate(797.712 2770.917)">
      <g id="Group_38" data-name="Group 38" transform="translate(70.573)">
        <path id="Path_163" data-name="Path 163" d="M75.452,0a4.885,4.885,0,0,0-4.879,4.879c0,3.339,4.366,8.24,4.552,8.447a.439.439,0,0,0,.654,0c.186-.207,4.552-5.109,4.552-8.447A4.885,4.885,0,0,0,75.452,0Zm0,7.334a2.455,2.455,0,1,1,2.455-2.455A2.458,2.458,0,0,1,75.452,7.334Z" transform="translate(-70.573)" fill="#fff"/>
      </g>
    </g>
  </g>
</svg>
