<svg xmlns="http://www.w3.org/2000/svg" width="44.122" height="52.258" viewBox="0 0 44.122 52.258">
  <g id="Group_44" data-name="Group 44" transform="translate(-1044.488 -150.8)">
    <path id="Path_171" data-name="Path 171" d="M58.122,3V20.271A32.917,32.917,0,0,1,40.7,49.3l-3.139,1.672L34.422,49.3A32.917,32.917,0,0,1,17,20.271V3l1.946,1.11a16.469,16.469,0,0,0,15.517.439L37.561,3l3.1,1.549a16.441,16.441,0,0,0,15.5-.439Z" transform="translate(1028.988 150.383)" fill="none" stroke="#0eafed" stroke-width="3"/>
    <path id="Path_176" data-name="Path 176" d="M38.771,13.955l-8.34,8.34-3.4-3.4a1.089,1.089,0,1,0-1.54,1.54l4.171,4.171a1.089,1.089,0,0,0,1.54,0l9.11-9.11a1.089,1.089,0,1,0-1.54-1.54Z" transform="translate(1034.015 155.785)" fill="#0eafed" stroke="#0eafed" stroke-width="1"/>
  </g>
</svg>
